<?xml version="1.0" encoding="UTF-8" standalone="no"?>
<!-- Created with Inkscape (http://www.inkscape.org/) -->

<svg
   xmlns:dc="http://purl.org/dc/elements/1.1/"
   xmlns:cc="http://creativecommons.org/ns#"
   xmlns:rdf="http://www.w3.org/1999/02/22-rdf-syntax-ns#"
   xmlns:svg="http://www.w3.org/2000/svg"
   xmlns="http://www.w3.org/2000/svg"
   xmlns:sodipodi="http://sodipodi.sourceforge.net/DTD/sodipodi-0.dtd"
   xmlns:inkscape="http://www.inkscape.org/namespaces/inkscape"
   width="558.62549"
   height="558.62549"
   viewBox="0 0 147.80299 147.803"
   version="1.1"
   id="svg8"
   inkscape:version="0.92.3 (2405546, 2018-03-11)"
   sodipodi:docname="desktop-icon.svg">
  <defs
     id="defs2">
    <clipPath
       id="clipPath4534"
       clipPathUnits="userSpaceOnUse">
      <path
         inkscape:connector-curvature="0"
         id="path4532"
         d="M 0,566.93 H 566.93 V 0 H 0 Z" />
    </clipPath>
  </defs>
  <sodipodi:namedview
     id="base"
     pagecolor="#ffffff"
     bordercolor="#666666"
     borderopacity="1.0"
     inkscape:pageopacity="0.0"
     inkscape:pageshadow="2"
     inkscape:zoom="1.4"
     inkscape:cx="188.56553"
     inkscape:cy="267.05927"
     inkscape:document-units="mm"
     inkscape:current-layer="layer3"
     showgrid="false"
     inkscape:window-width="1920"
     inkscape:window-height="1027"
     inkscape:window-x="1912"
     inkscape:window-y="-8"
     inkscape:window-maximized="1"
     units="px" />
  <metadata
     id="metadata5">
    <rdf:RDF>
      <cc:Work
         rdf:about="">
        <dc:format>image/svg+xml</dc:format>
        <dc:type
           rdf:resource="http://purl.org/dc/dcmitype/StillImage" />
        <dc:title></dc:title>
      </cc:Work>
    </rdf:RDF>
  </metadata>
  <g
     inkscape:label="Layer 1"
     inkscape:groupmode="layer"
     id="layer1"
     transform="translate(0,-149.19698)"
     style="display:none"
     sodipodi:insensitive="true">
    <g
       transform="matrix(0.35277777,0,0,-0.35277777,-26.09857,338.59081)"
       inkscape:label="pantalla emilio"
       id="g4526">
      <g
         id="g4528">
        <g
           clip-path="url(#clipPath4534)"
           id="g4530">
          <g
             transform="translate(458.0332,459.0342)"
             id="g4536">
            <path
               inkscape:connector-curvature="0"
               id="path4538"
               style="fill:#a9a9a9;fill-opacity:1;fill-rule:nonzero;stroke:none"
               d="m 0,0 h -349.139 c -19.282,0 -34.914,-15.632 -34.914,-34.914 v -209.483 c 0,-19.283 15.632,-34.915 34.914,-34.915 H 0 c 19.284,0 34.916,15.632 34.916,34.915 V -34.914 C 34.916,-15.632 19.284,0 0,0 m 0,-19 c 8.776,0 15.916,-7.139 15.916,-15.914 v -209.483 c 0,-8.776 -7.14,-15.915 -15.916,-15.915 h -349.139 c -8.775,0 -15.914,7.139 -15.914,15.915 v 209.483 c 0,8.775 7.139,15.914 15.914,15.914 L 0,-19" />
          </g>
          <g
             transform="translate(302.9551,168.1953)"
             id="g4540">
            <path
               inkscape:connector-curvature="0"
               id="path4542"
               style="fill:#a9a9a9;fill-opacity:1;fill-rule:nonzero;stroke:none"
               d="M 0,0 C 0,22.919 18.582,41.5 41.499,41.5 H -80.48 c 22.918,0 41.499,-18.581 41.499,-41.5 0,-22.919 -51.135,-41.497 -74.052,-41.499 V -50.3 H 74.053 v 8.801 C 51.135,-41.499 0,-22.919 0,0" />
          </g>
          <g
             transform="translate(492.9492,236.9873)"
             id="g4544">
            <path
               inkscape:connector-curvature="0"
               id="path4546"
               style="fill:#a9a9a9;fill-opacity:1;fill-rule:nonzero;stroke:none"
               d="m 0,0 h -418.969 v -22.351 l 0.129,-0.129 c 1.262,-18.36 15.903,-33.001 34.264,-34.262 l 0.521,-0.524 h 349.139 l 0.426,0.518 c 19.258,1.271 34.49,17.25 34.49,36.827 0,1.614 -0.14,3.193 -0.34,4.753 L 0,-14.754 Z" />
          </g>
        </g>
      </g>
    </g>
  </g>
  <g
     inkscape:groupmode="layer"
     id="layer3"
     inkscape:label="Layer3"
     transform="translate(0,27.456997)">
    <rect
       style="display:inline;opacity:1;fill:#ffffff;fill-opacity:1;stroke:none;stroke-width:0.47099999;stroke-linecap:round;stroke-linejoin:round;stroke-miterlimit:4;stroke-dasharray:none;stroke-dashoffset:0;stroke-opacity:1"
       id="rect829"
       width="134.7485"
       height="79.186012"
       x="7.3705354"
       y="-6.4650149" />
  </g>
  <g
     inkscape:groupmode="layer"
     id="layer2"
     inkscape:label="Layer 2"
     style="display:inline"
     transform="translate(0,27.456997)">
    <path
       inkscape:connector-curvature="0"
       id="path4538-9"
       style="fill:#a9a9a9;fill-opacity:1;fill-rule:nonzero;stroke:none;stroke-width:0.35277775"
       d="M 135.48536,-13.728611 H 12.316884 C 5.5146238,-13.728611 2e-6,-8.2139895 2e-6,-1.4117287 V 72.489217 c 0,6.802612 5.5146218,12.317235 12.316882,12.317235 H 135.48536 c 6.80297,0 12.31759,-5.514623 12.31759,-12.317235 V -1.4117287 c 0,-6.8022608 -5.51462,-12.3168823 -12.31759,-12.3168823 M 136.1,72.489217 H 11.703 V -2.0253917 H 136.1"
       sodipodi:nodetypes="csssssssccccc" />
    <path
       inkscape:connector-curvature="0"
       id="path4542-5"
       style="fill:#a9a9a9;fill-opacity:1;fill-rule:nonzero;stroke:none;stroke-width:0.37856174"
       d="m 81.819426,88.872891 c 0,-8.085317 7.54857,-14.640282 16.858148,-14.640282 h -49.55156 c 9.309985,0 16.858148,6.554965 16.858148,14.640282 0,8.08531 -20.772583,12.639019 -30.082162,12.639719 v 5.105 h 76 v -5.105 c -9.30999,0 -30.082574,-4.554409 -30.082574,-12.639719"
       sodipodi:nodetypes="cccsccccc" />
    <path
       inkscape:connector-curvature="0"
       id="path4546-2"
       style="fill:#a9a9a9;fill-opacity:1;fill-rule:nonzero;stroke:none;stroke-width:0.35277775"
       d="M 147.80295,64.604596 H 0 v 7.884938 l 0.04551,0.04551 c 0.445206,6.477 5.6102253,11.642018 12.087578,12.08687 l 0.183797,0.184857 H 135.48536 l 0.15028,-0.18274 c 6.7938,-0.448379 12.16731,-6.085417 12.16731,-12.991746 0,-0.569383 -0.0494,-1.126421 -0.11994,-1.676754 l 0.11994,-0.14605 z" />
  </g>
</svg>
