<?xml version="1.0" encoding="UTF-8" standalone="no"?>
<svg
   xmlns:dc="http://purl.org/dc/elements/1.1/"
   xmlns:cc="http://creativecommons.org/ns#"
   xmlns:rdf="http://www.w3.org/1999/02/22-rdf-syntax-ns#"
   xmlns:svg="http://www.w3.org/2000/svg"
   xmlns="http://www.w3.org/2000/svg"
   id="svg20"
   version="1.1"
   viewBox="0 0 70 82"
   height="82"
   width="70">
  <metadata
     id="metadata26">
    <rdf:RDF>
      <cc:Work
         rdf:about="">
        <dc:format>image/svg+xml</dc:format>
        <dc:type
           rdf:resource="http://purl.org/dc/dcmitype/StillImage" />
        <dc:title></dc:title>
      </cc:Work>
    </rdf:RDF>
  </metadata>
  <defs
     id="defs24" />
  <g
     id="g18"
     fill="none">
    <path
       id="path2"
       d="M3.82 73.368c-.923 0-.923-1.182-.923-1.971V3.581c0-.79 0-1.183.923-1.183h56.872c.792 0 1.584.394 1.584 1.183v67.816c0 .789-.792 1.971-1.584 1.971H3.82z"
       fill="#FFF" />
    <path
       id="path4"
       d="M59.852 5.258v65.73H5.32V5.257h54.532zM60.916 0H3.591C1.197 0 0 1.577 0 3.812v67.833c0 2.234 1.197 4.6 3.591 4.6h57.325c2.261 0 4.256-2.366 4.256-4.6V3.812C65.172 1.577 63.177 0 60.916 0z"
       fill="#B3BCBB" />
    <path
       id="path6"
       d="M60.737 2.419H3.82c-.924 0-.924.393-.924 1.18v67.63c0 .525 0 .918.264 1.18L61.793 2.681c-.264-.393-.66-.262-1.056-.262z"
       fill="#FFF" />
    <path
       id="path8"
       d="M63.724.919C62.928.262 61.866 0 60.804 0H3.583C1.194 0 0 1.575 0 3.806v67.72c0 1.312.266 2.231.93 3.281l4.38-4.33V5.25h54.431v.525L63.724.919z"
       fill="#B3BCBB" />
    <path
       id="path10"
       fill="#B1BAB9"
       d="M16.468 18.342h31.238c1.059 0 1.985-.923 1.985-1.978s-.926-1.978-1.985-1.978H16.468c-1.059 0-1.985.923-1.985 1.978s.926 1.978 1.985 1.978zm31.238 18.462H16.468c-1.059 0-1.985.923-1.985 1.978s.926 1.978 1.985 1.978h31.238c1.059 0 1.985-.923 1.985-1.978s-.794-1.978-1.985-1.978z" />
    <path
       id="path12"
       fill="#B3BCBB"
       d="M34.667 47.366H16.475c-1.063 0-1.992.923-1.992 1.979 0 1.055.93 1.979 1.992 1.979h18.06c1.062 0 1.991-.924 1.991-1.98.133-1.055-.796-1.978-1.859-1.978zm0-22.43H16.475c-1.063 0-1.992.923-1.992 1.979 0 1.055.93 1.979 1.992 1.979h18.06c1.062 0 1.991-.924 1.991-1.98.133-1.055-.796-1.978-1.859-1.978z" />
    <ellipse
       id="ellipse14"
       ry="17.743"
       rx="17.862"
       fill="#E12C44"
       cy="64.257"
       cx="52.138" />
    <path
       style="fill:#ffffff"
       id="path16"
       d="m 60.72,69.53225 -6.962,7.072 c -0.788,0.801 -1.97,0.801 -2.758,0 l -6.96,-7.072 c -0.789,-0.8 -0.789,-2.001 0,-2.802 0.787,-0.8 2.1,-0.8 2.757,0 l 3.81,3.736 v -14.277 c 0,-1.068 0.919,-2.002 1.97,-2.002 1.05,0 1.97,0.934 1.97,2.002 v 14.277 l 3.546,-3.736 c 0.394,-0.4 0.788,-0.534 1.313,-0.534 0.525,0 0.92,0.134 1.313,0.534 0.788,0.8 0.788,2.002 0,2.802 z" />
  </g>
</svg>
