<svg xmlns="http://www.w3.org/2000/svg" width="70" height="82" viewBox="0 0 70 82"><g fill="none"><path fill="#FFF" d="M3.82 73.368c-.923 0-.923-1.182-.923-1.971V3.581c0-.79 0-1.183.923-1.183h56.872c.792 0 1.584.394 1.584 1.183v67.816c0 .789-.792 1.971-1.584 1.971H3.82z"/><path fill="#B3BCBB" d="M59.852 5.258v65.73H5.32V5.257h54.532zM60.916 0H3.591C1.197 0 0 1.577 0 3.812v67.833c0 2.234 1.197 4.6 3.591 4.6h57.325c2.261 0 4.256-2.366 4.256-4.6V3.812C65.172 1.577 63.177 0 60.916 0z"/><path fill="#FFF" d="M60.737 2.419H3.82c-.924 0-.924.393-.924 1.18v67.63c0 .525 0 .918.264 1.18L61.793 2.681c-.264-.393-.66-.262-1.056-.262z"/><path fill="#B3BCBB" d="M63.724.919C62.928.262 61.866 0 60.804 0H3.583C1.194 0 0 1.575 0 3.806v67.72c0 1.312.266 2.231.93 3.281l4.38-4.33V5.25h54.431v.525L63.724.919z"/><path d="M16.468 18.342h31.238c1.059 0 1.985-.923 1.985-1.978s-.926-1.978-1.985-1.978H16.468c-1.059 0-1.985.923-1.985 1.978s.926 1.978 1.985 1.978zm31.238 18.462H16.468c-1.059 0-1.985.923-1.985 1.978s.926 1.978 1.985 1.978h31.238c1.059 0 1.985-.923 1.985-1.978s-.794-1.978-1.985-1.978z" fill="#B1BAB9"/><path d="M34.667 47.366H16.475c-1.063 0-1.992.923-1.992 1.979 0 1.055.93 1.979 1.992 1.979h18.06c1.062 0 1.991-.924 1.991-1.98.133-1.055-.796-1.978-1.859-1.978zm0-22.43H16.475c-1.063 0-1.992.923-1.992 1.979 0 1.055.93 1.979 1.992 1.979h18.06c1.062 0 1.991-.924 1.991-1.98.133-1.055-.796-1.978-1.859-1.978z" fill="#B3BCBB"/><ellipse cx="52.138" cy="64.257" fill="#E12C44" rx="17.862" ry="17.743"/><path fill="#FFF" d="M60.72 61.86l-6.962-7.072c-.788-.801-1.97-.801-2.758 0l-6.96 7.072c-.789.8-.789 2.001 0 2.802.787.8 2.1.8 2.757 0l3.81-3.736v14.277c0 1.068.919 2.002 1.97 2.002 1.05 0 1.97-.934 1.97-2.002V60.926l3.546 3.736c.394.4.788.534 1.313.534.525 0 .92-.134 1.313-.534.788-.8.788-2.002 0-2.802z"/></g></svg>